<?xml version="1.0" encoding="UTF-8" standalone="no"?>
<svg width="48px" height="48px" viewBox="0 0 48 48" version="1.1" xmlns="http://www.w3.org/2000/svg" xmlns:xlink="http://www.w3.org/1999/xlink" xmlns:sketch="http://www.bohemiancoding.com/sketch/ns">
    <!-- Generator: Sketch 3.4.2 (15855) - http://www.bohemiancoding.com/sketch -->
    <title>camera</title>
    <desc>Created with Sketch.</desc>
    <defs></defs>
    <g id="Page-1" stroke="none" stroke-width="1" fill="none" fill-rule="evenodd" sketch:type="MSPage">
        <g id="camera" sketch:type="MSArtboardGroup" fill="#7B8383">
            <path d="M24.159369,20.2115583 C20.3235985,20.2115583 17.2115583,23.3235985 17.2115583,27.159369 C17.2115583,30.9951394 20.3235985,34.1071796 24.159369,34.1071796 C27.9951394,34.1071796 31.1071796,30.9951394 31.1071796,27.159369 C31.1071796,23.3235985 27.9951394,20.2115583 24.159369,20.2115583 L24.159369,20.2115583 Z M41.1429062,10.1758317 L35.7390534,10.1758317 L34.508712,6.89492112 C33.9056034,5.3027145 32.0239047,4 30.3352007,4 L17.9835372,4 C16.2948332,4 14.4131345,5.3027145 13.810026,6.89492112 L12.5796845,10.1758317 L7.17583172,10.1758317 C3.77429941,10.1758317 1,12.9501311 1,16.3516634 L1,37.9670745 C1,41.3686068 3.77429941,44.1429062 7.17583172,44.1429062 L41.1429062,44.1429062 C44.5444385,44.1429062 47.3187379,41.3686068 47.3187379,37.9670745 L47.3187379,16.3516634 C47.3187379,12.9501311 44.5444385,10.1758317 41.1429062,10.1758317 L41.1429062,10.1758317 Z M24.159369,37.9670745 C18.2006563,37.9670745 13.3516634,33.1180816 13.3516634,27.159369 C13.3516634,21.2006563 18.2006563,16.3516634 24.159369,16.3516634 C30.1180816,16.3516634 34.9670745,21.2006563 34.9670745,27.159369 C34.9670745,33.1180816 30.1180816,37.9670745 24.159369,37.9670745 L24.159369,37.9670745 Z" id="" sketch:type="MSShapeGroup"></path>
        </g>
    </g>
</svg>