<?xml version="1.0" encoding="UTF-8" standalone="no"?>
<svg width="40px" height="35px" viewBox="0 0 40 35" version="1.1" xmlns="http://www.w3.org/2000/svg" xmlns:xlink="http://www.w3.org/1999/xlink" xmlns:sketch="http://www.bohemiancoding.com/sketch/ns">
    <!-- Generator: Sketch 3.2.2 (9983) - http://www.bohemiancoding.com/sketch -->
    <title>camera</title>
    <desc>Created with Sketch.</desc>
    <defs></defs>
    <g id="Page-1" stroke="none" stroke-width="1" fill="none" fill-rule="evenodd" sketch:type="MSPage">
        <g id="camera" sketch:type="MSArtboardGroup" fill="#9f9089">
            <path d="M20.2857373,14.6428365 C17.091537,14.6428365 14.5000161,17.2343574 14.5000161,20.4285576 C14.5000161,23.6227579 17.091537,26.2142788 20.2857373,26.2142788 C23.4799375,26.2142788 26.0714585,23.6227579 26.0714585,20.4285576 C26.0714585,17.2343574 23.4799375,14.6428365 20.2857373,14.6428365 L20.2857373,14.6428365 Z M34.4286113,6.28568363 L29.9286059,6.28568363 L28.9040511,3.55353752 C28.4018184,2.22764308 26.8348522,1.14282036 25.4286005,1.14282036 L15.142874,1.14282036 C13.7366223,1.14282036 12.1696562,2.22764308 11.6674234,3.55353752 L10.6428686,6.28568363 L6.14286327,6.28568363 C3.31027061,6.28568363 1,8.59595424 1,11.4285469 L1,29.4285684 C1,32.261161 3.31027061,34.5714316 6.14286327,34.5714316 L34.4286113,34.5714316 C37.2612039,34.5714316 39.5714746,32.261161 39.5714746,29.4285684 L39.5714746,11.4285469 C39.5714746,8.59595424 37.2612039,6.28568363 34.4286113,6.28568363 L34.4286113,6.28568363 Z M20.2857373,29.4285684 C15.3236778,29.4285684 11.2857265,25.3906171 11.2857265,20.4285576 C11.2857265,15.4664981 15.3236778,11.4285469 20.2857373,11.4285469 C25.2477968,11.4285469 29.285748,15.4664981 29.285748,20.4285576 C29.285748,25.3906171 25.2477968,29.4285684 20.2857373,29.4285684 L20.2857373,29.4285684 Z" id="--" sketch:type="MSShapeGroup"></path>
        </g>
    </g>
</svg>
