<?xml version="1.0" encoding="UTF-8" standalone="no"?>
<svg width="48px" height="38px" viewBox="0 0 48 38" version="1.1" xmlns="http://www.w3.org/2000/svg" xmlns:xlink="http://www.w3.org/1999/xlink" xmlns:sketch="http://www.bohemiancoding.com/sketch/ns">
    <title>envelope</title>
    <description>Created with Sketch (http://www.bohemiancoding.com/sketch)</description>
    <defs></defs>
    <g id="Page-1" stroke="none" stroke-width="1" fill="none" fill-rule="evenodd" sketch:type="MSPage">
        <g id="envelope" sketch:type="MSArtboardGroup" transform="translate(-1.000000, -6.000000)" fill="#9f9089">
            <path d="M49.0000572,18.1607288 C48.1964848,19.0446584 47.2857695,19.821445 46.3214826,20.4910887 C41.848263,23.517878 37.3482576,26.5714531 32.982181,29.7321711 C30.7321783,31.3928874 27.9464607,33.4286041 25.0268144,33.4286041 L25.0000286,33.4286041 L24.9732429,33.4286041 C22.0535965,33.4286041 19.2678789,31.3928874 17.0178762,29.7321711 C12.6517996,26.5446673 8.15179424,23.517878 3.70536037,20.4910887 C2.71428776,19.821445 1.80357239,19.0446584 1,18.1607288 L1,39.4286113 C1,41.7857569 2.92857373,43.7143307 5.28571939,43.7143307 L44.7143378,43.7143307 C47.0714835,43.7143307 49.0000572,41.7857569 49.0000572,39.4286113 L49.0000572,18.1607288 Z M49.0000572,10.2857194 C49.0000572,7.92857373 47.0446977,6 44.7143378,6 L5.28571939,6 C2.41964455,6 1,8.25000268 1,10.8750058 C1,13.3125087 3.70536037,16.339298 5.60714835,17.6250139 C9.75893901,20.5178744 13.9643012,23.410735 18.1160918,26.3303814 C19.8571653,27.53574 22.8035974,30.0000286 24.9732429,30.0000286 L25.0000286,30.0000286 L25.0268144,30.0000286 C27.1964598,30.0000286 30.1428919,27.53574 31.8839654,26.3303814 C36.0357561,23.410735 40.2411182,20.5178744 44.4196946,17.6250139 C46.7768403,15.9910833 49.0000572,13.285723 49.0000572,10.2857194 Z" id="" sketch:type="MSShapeGroup"></path>
        </g>
    </g>
</svg>
