<?xml version="1.0" encoding="UTF-8" standalone="no"?>
<svg width="48px" height="48px" viewBox="0 0 48 48" version="1.1" xmlns="http://www.w3.org/2000/svg" xmlns:xlink="http://www.w3.org/1999/xlink" xmlns:sketch="http://www.bohemiancoding.com/sketch/ns">
    <!-- Generator: Sketch 3.4.2 (15855) - http://www.bohemiancoding.com/sketch -->
    <title>envelope</title>
    <desc>Created with Sketch.</desc>
    <defs></defs>
    <g id="Page-1" stroke="none" stroke-width="1" fill="none" fill-rule="evenodd" sketch:type="MSPage">
        <g id="envelope" sketch:type="MSArtboardGroup" fill="#7B8383">
            <path d="M44.5714817,38.1428561 C44.5714817,38.5982138 44.1696955,39 43.7143378,39 L4.28571939,39 C3.83036171,39 3.42857552,38.5982138 3.42857552,38.1428561 L3.42857552,17.571403 C3.99107619,18.2142609 4.60714835,18.8035474 5.276792,19.3392623 C9.10715371,22.2856944 12.9643012,25.2856979 16.6875199,28.3928445 C18.6964509,30.0803465 21.1875253,32.142849 23.9732429,32.142849 L24.0000286,32.142849 L24.0268144,32.142849 C26.812532,32.142849 29.3036064,30.0803465 31.3125373,28.3928445 C35.0357561,25.2856979 38.8929035,22.2856944 42.7232652,19.3392623 C43.3929089,18.8035474 44.008981,18.2142609 44.5714817,17.571403 L44.5714817,38.1428561 Z M44.5714817,9.99103685 C44.5714817,12.2678253 42.3750505,15.2410431 40.633977,16.6071162 C37.044687,19.4196195 33.455397,22.2589086 29.8928928,25.0981977 C28.4732482,26.2499848 25.9018166,28.7142735 24.0268144,28.7142735 L24.0000286,28.7142735 L23.9732429,28.7142735 C22.0982406,28.7142735 19.526809,26.2499848 18.1071644,25.0981977 C14.5446602,22.2589086 10.9553702,19.4196195 7.36608021,16.6071162 C4.95536305,14.7053282 3.42857552,12.0535393 3.42857552,8.99996424 C3.42857552,8.54460655 3.83036171,8.14282036 4.28571939,8.14282036 L43.7143378,8.14282036 C44.7321962,8.14282036 44.5714817,9.32139319 44.5714817,9.99103685 L44.5714817,9.99103685 Z M48.0000572,8.99996424 C48.0000572,6.64281857 46.0714835,4.71424484 43.7143378,4.71424484 L4.28571939,4.71424484 C1.92857373,4.71424484 0,6.64281857 0,8.99996424 L0,38.1428561 C0,40.5000018 1.92857373,42.4285755 4.28571939,42.4285755 L43.7143378,42.4285755 C46.0714835,42.4285755 48.0000572,40.5000018 48.0000572,38.1428561 L48.0000572,8.99996424 Z" id="" sketch:type="MSShapeGroup"></path>
        </g>
    </g>
</svg>