<?xml version="1.0" encoding="UTF-8" standalone="no"?>
<svg width="49px" height="23px" viewBox="0 0 49 23" version="1.1" xmlns="http://www.w3.org/2000/svg" xmlns:xlink="http://www.w3.org/1999/xlink" xmlns:sketch="http://www.bohemiancoding.com/sketch/ns">
    <title>flickr</title>
    <description>Created with Sketch (http://www.bohemiancoding.com/sketch)</description>
    <defs></defs>
    <g id="Page-1" stroke="none" stroke-width="1" fill="none" fill-rule="evenodd" sketch:type="MSPage">
        <g id="Flickr" sketch:type="MSArtboardGroup" transform="translate(0.000000, -13.000000)" fill="#FFC054">
            <g sketch:type="MSLayerGroup" transform="translate(0.000000, 14.000000)" id="Path">
                <path d="M48.8456633,10.8006885 C48.8456633,9.2494418 48.5521071,7.80395597 47.9649883,6.46422779 C47.3778696,5.12450929 46.6008034,3.96106861 45.6337899,2.97390574 C44.6667764,1.98674287 43.5270794,1.2111179 42.2146989,0.647024374 C40.9023501,0.0829308459 39.4863608,-0.199114304 37.9667374,-0.199114304 C36.5162139,-0.199114304 35.1347652,0.0829308459 33.8223847,0.647024374 C32.5100074,1.21080481 31.3530401,1.98643301 30.3514893,2.97390574 C29.3499384,3.96106861 28.5728723,5.12450929 28.0202909,6.46422779 C27.4677095,7.80394629 27.1914203,9.24943535 27.1914203,10.8006885 C27.1914203,12.3519417 27.4677095,13.7974307 28.0202909,15.1371492 C28.5728723,16.4768564 29.3499384,17.6579256 30.3514893,18.680355 C31.3529927,19.7027731 32.5099568,20.4960281 33.8223847,21.06012 C35.1347652,21.6242119 36.5162139,21.9062587 37.9667374,21.9062587 C39.4863355,21.9062587 40.9023185,21.6242119 42.2146989,21.06012 C43.5270794,20.4960281 44.6667764,19.7027731 45.6337899,18.680355 C46.6008034,17.6579369 47.3778696,16.4768694 47.9649883,15.1371492 C48.5521071,13.7974856 48.8456633,12.3519998 48.8456633,10.8006885 L48.8456633,10.8006885 Z" sketch:type="MSShapeGroup"></path>
                <path d="M21.8037618,10.8006885 C21.8037618,9.2494418 21.5102025,7.80395597 20.9230869,6.46422779 C20.3359713,5.12450929 19.5589052,3.96106861 18.5918885,2.97390574 C17.6248718,1.98674287 16.4851748,1.2111179 15.1727975,0.647024374 C13.8604202,0.0829308459 12.4444309,-0.199114304 10.924836,-0.199114304 C9.40524102,-0.199114304 7.98925173,0.0829308459 6.67687443,0.647024374 C5.36454297,1.21080481 4.20757731,1.98643301 3.20597903,2.97390574 C2.2044266,3.96106861 1.42736047,5.12450929 0.874780633,6.46422779 C0.322200799,7.80394629 0.0459100908,9.24943535 0.0459100908,10.8006885 C0.0459100908,12.3519417 0.322200799,13.7974307 0.874780633,15.1371492 C1.42736047,16.4768564 2.2044266,17.6579256 3.20597903,18.680355 C4.20753147,19.7027731 5.36449554,20.4960281 6.67687443,21.06012 C7.98922644,21.6242119 9.40521256,21.9062587 10.924836,21.9062587 C12.4443076,21.9062587 13.8602937,21.6242119 15.1727975,21.06012 C16.4851748,20.4960281 17.6248718,19.7027731 18.5918885,18.680355 C19.5589052,17.6579369 20.3359713,16.4768694 20.9230869,15.1371492 C21.5102025,13.7974856 21.8037618,12.3519998 21.8037618,10.8006885 L21.8037618,10.8006885 Z" sketch:type="MSShapeGroup"></path>
            </g>
        </g>
    </g>
</svg>