<?xml version="1.0" encoding="UTF-8" standalone="no"?>
<svg width="48px" height="48px" viewBox="0 0 48 48" version="1.1" xmlns="http://www.w3.org/2000/svg" xmlns:xlink="http://www.w3.org/1999/xlink" xmlns:sketch="http://www.bohemiancoding.com/sketch/ns">
    <!-- Generator: Sketch 3.4.2 (15855) - http://www.bohemiancoding.com/sketch -->
    <title>github</title>
    <desc>Created with Sketch.</desc>
    <defs></defs>
    <g id="Page-1" stroke="none" stroke-width="1" fill="none" fill-rule="evenodd" sketch:type="MSPage">
        <g id="github" sketch:type="MSArtboardGroup" fill="#7B8383">
            <path d="M19.7142949,39.0000429 C19.7142949,40.4196875 18.5625078,41.5714746 17.1428633,41.5714746 C15.7232187,41.5714746 14.5714316,40.4196875 14.5714316,39.0000429 C14.5714316,37.5803984 15.7232187,36.4286113 17.1428633,36.4286113 C18.5625078,36.4286113 19.7142949,37.5803984 19.7142949,39.0000429 L19.7142949,39.0000429 Z M19.7142949,8.14286327 C19.7142949,9.56250782 18.5625078,10.7142949 17.1428633,10.7142949 C15.7232187,10.7142949 14.5714316,9.56250782 14.5714316,8.14286327 C14.5714316,6.72321872 15.7232187,5.57143164 17.1428633,5.57143164 C18.5625078,5.57143164 19.7142949,6.72321872 19.7142949,8.14286327 L19.7142949,8.14286327 Z M36.8571725,11.5714388 C36.8571725,12.9910833 35.7053854,14.1428704 34.2857409,14.1428704 C32.8660963,14.1428704 31.7143092,12.9910833 31.7143092,11.5714388 C31.7143092,10.1517942 32.8660963,9.00000715 34.2857409,9.00000715 C35.7053854,9.00000715 36.8571725,10.1517942 36.8571725,11.5714388 L36.8571725,11.5714388 Z M39.4286041,11.5714388 C39.4286041,8.73214969 37.12503,6.42857552 34.2857409,6.42857552 C31.4464518,6.42857552 29.1428776,8.73214969 29.1428776,11.5714388 C29.1428776,13.4732268 30.1875217,15.133943 31.7143092,16.0178727 C31.6607377,21.6160936 28.8214486,22.7946665 23.8392998,24.3750255 C22.5267983,24.7768117 21.080368,25.2321694 19.7142949,25.901813 L19.7142949,12.5892971 C21.2410824,11.7053675 22.2857265,10.0446513 22.2857265,8.14286327 C22.2857265,5.30357417 19.9821524,3 17.1428633,3 C14.3035742,3 12,5.30357417 12,8.14286327 C12,10.0446513 13.0446441,11.7053675 14.5714316,12.5892971 L14.5714316,34.553609 C13.0446441,35.4375387 12,37.0982549 12,39.0000429 C12,41.839332 14.3035742,44.1429062 17.1428633,44.1429062 C19.9821524,44.1429062 22.2857265,41.839332 22.2857265,39.0000429 C22.2857265,37.0982549 21.2410824,35.4375387 19.7142949,34.553609 L19.7142949,33.8571796 C19.7142949,31.2589623 21.1071537,30.6161043 25.3660874,29.276817 C29.9196642,27.8303867 36.7768153,25.687527 36.8571725,16.0178727 C38.38396,15.133943 39.4286041,13.4732268 39.4286041,11.5714388 L39.4286041,11.5714388 Z" id="" sketch:type="MSShapeGroup"></path>
        </g>
    </g>
</svg>