<?xml version="1.0" encoding="UTF-8" standalone="no"?>
<svg width="49px" height="41px" viewBox="0 0 49 41" version="1.1" xmlns="http://www.w3.org/2000/svg" xmlns:xlink="http://www.w3.org/1999/xlink" xmlns:sketch="http://www.bohemiancoding.com/sketch/ns">
    <title>github</title>
    <description>Created with Sketch (http://www.bohemiancoding.com/sketch)</description>
    <defs></defs>
    <g id="Page-1" stroke="none" stroke-width="1" fill="none" fill-rule="evenodd" sketch:type="MSPage">
        <g id="Github" sketch:type="MSArtboardGroup" transform="translate(-1.000000, -4.000000)" fill="#9f9089">
            <path d="M45.1666245,15.1970002 C45.6666241,13.6372199 45.9166238,12.0217315 45.9166238,10.3505374 C45.9166238,8.17798515 45.4444004,6.06114104 44.4999585,4 C42.3332939,4 40.4999623,4.36209035 38.9999638,5.08627614 C37.3332987,5.866165 35.5277432,7.03600339 33.5833023,8.59578366 C30.9722309,7.98301166 28.2777882,7.67662693 25.4999766,7.67662693 C22.3888676,7.67662693 19.4166491,8.01086574 16.5833185,8.67934336 C15.5277648,7.89945195 14.5555418,7.21704856 13.6666546,6.63213064 C12.7777674,6.04721272 11.9166563,5.55978282 11.0833237,5.16983584 C9.58332515,4.38994698 7.77777089,4 5.66666222,4 C4.66666317,6.00543287 4.16666365,8.12227953 4.16666365,10.3505374 C4.16666365,12.0217315 4.41666341,13.6372199 4.91666293,15.1970002 C2.30555473,18.3165633 1,22.1603096 1,26.7282392 C1,30.7391049 1.6111101,33.9422265 2.83333158,36.337605 C3.72222005,38.287331 5.09721874,39.8192585 6.95832765,40.9333887 C8.81943656,42.0475189 10.7499907,42.8831159 12.7499888,43.4401798 C14.1944327,43.8858311 15.6666527,44.1922171 17.1666512,44.3593365 C17.9444291,44.470749 18.6944284,44.540383 19.4166491,44.5682358 C20.1388698,44.5960886 20.8055358,44.6378684 21.4166472,44.6935753 C22.0277586,44.7492822 22.666646,44.777135 23.333312,44.777135 L25.4999766,44.777135 C26.388724,44.777135 27.2359445,44.763208 28.0416409,44.7353552 C28.8470448,44.7075024 29.6109321,44.6657225 30.3333054,44.6100156 C31.0553684,44.5543087 31.8192557,44.4846761 32.6249698,44.4011164 C33.4305263,44.3175567 34.3055255,44.1922171 35.2499673,44.0250977 C36.1944092,43.8579783 37.0694084,43.649079 37.8749648,43.3983999 C38.6805213,43.1477208 39.4444061,42.8831159 40.1666293,42.6045827 C41.6108723,42.0475189 42.9719804,41.2258477 44.2499588,40.1395715 C45.5273064,39.0532954 46.5550815,37.7859741 47.3332891,36.337605 C48.4999547,33.9422265 49.0832875,30.7391049 49.0832875,26.7282392 C49.0832875,22.0488958 47.7777315,18.2051495 45.1666245,15.1970002 Z M34.3333015,25.3912839 C33.5555262,25.3912839 32.833303,25.7255228 32.1666369,26.3940004 C31.3333044,27.3967168 30.8471929,28.5108458 30.708305,29.7363885 C30.5694171,30.9619312 30.6388598,32.1596199 30.9166381,33.3294557 C31.1944165,34.1093459 31.6249708,34.8335304 32.2083036,35.502008 C32.7916363,36.1704856 33.499969,36.5047244 34.3333015,36.5047244 C35.110731,36.5047244 35.8051731,36.1704856 36.4166329,35.502008 C37.3055226,34.4992916 37.8194076,33.3851626 37.9582981,32.1596199 C38.0971885,30.9340771 37.9721887,29.7363885 37.5832984,28.5665527 C37.3610747,27.7866612 36.958299,27.062478 36.3749663,26.3940004 C35.7916335,25.7255228 35.1110769,25.3912839 34.3333015,25.3912839 Z M15.8333192,25.3912839 C15.0555413,25.3912839 14.3333206,25.7255228 13.6666546,26.3940004 C12.833322,27.3967168 12.3472106,28.5108458 12.2083226,29.7363885 C12.0694347,30.9619312 12.1388774,32.1596199 12.4166558,33.3294557 C12.6944341,34.1093459 13.1249884,34.8335304 13.7083212,35.502008 C14.291654,36.1704856 14.9999866,36.5047244 15.8333192,36.5047244 C16.6110971,36.5047244 17.3055392,36.1704856 17.9166505,35.502008 C18.805525,34.4992916 19.3194126,33.3851626 19.4583157,32.1596199 C19.5972036,30.9340771 19.4999824,29.7363885 19.1666493,28.5665527 C18.888871,27.7866612 18.4583167,27.062478 17.8749839,26.3940004 C17.2916511,25.7255228 16.6110971,25.3912839 15.8333192,25.3912839 Z M39.3332968,38.4265976 C38.3332977,39.1507808 37.1666322,39.7078472 35.8333001,40.0977917 C34.3888587,40.5434443 33.0416361,40.8359032 31.7916373,40.9751685 C30.5416385,41.1144339 29.1110851,41.1840678 27.4999747,41.1840678 L22.5833127,41.1840678 C21.0277595,41.1840678 19.6110942,41.1144339 18.3333168,40.9751685 C17.0555928,40.8359032 15.6944821,40.5434443 14.2499874,40.0977917 C12.9166553,39.7078549 11.7499897,39.150791 10.7499907,38.4265976 C9.80554758,37.6467075 9.0277697,36.630064 8.41665959,35.3766684 C7.80554949,34.1232729 7.4999938,32.6609781 7.4999938,30.989784 C7.4999938,28.6501124 8.16665983,26.6725336 9.49999189,25.0570451 C10.777768,23.4415567 12.5833223,22.6338138 14.9166534,22.6338138 C15.3610983,22.6338138 16.0416523,22.6755936 16.9583181,22.7591533 C17.8749839,22.842713 19.0555375,22.9959066 20.4999814,23.2187317 C21.1666474,23.3301455 21.8888681,23.4137052 22.666646,23.4694108 C23.4444239,23.5251164 24.2499778,23.5529705 25.0833104,23.5529705 C25.8610882,23.5529705 26.6388636,23.5251164 27.4166415,23.4694108 C28.1944194,23.4137052 28.91664,23.3301455 29.5833061,23.2187317 C31.0833046,22.9959066 32.2916368,22.842713 33.2083026,22.7591533 C34.1249684,22.6755936 34.805525,22.6338138 35.2499673,22.6338138 C37.5832984,22.6338138 39.3610728,23.4415567 40.5832956,25.0570451 C41.9166276,26.6725132 42.5832937,28.6500932 42.5832937,30.989784 C42.5832937,32.6609781 42.2777367,34.1232729 41.6666279,35.3766684 C41.0555191,36.630064 40.2777386,37.6467075 39.3332968,38.4265976 Z" sketch:type="MSShapeGroup"></path>
        </g>
    </g>
</svg>
