<?xml version="1.0" encoding="UTF-8" standalone="no"?>
<svg width="43px" height="42px" viewBox="0 0 43 42" version="1.1" xmlns="http://www.w3.org/2000/svg" xmlns:xlink="http://www.w3.org/1999/xlink" xmlns:sketch="http://www.bohemiancoding.com/sketch/ns">
    <title>linkedin</title>
    <description>Created with Sketch (http://www.bohemiancoding.com/sketch)</description>
    <defs></defs>
    <g id="Page-1" stroke="none" stroke-width="1" fill="none" fill-rule="evenodd" sketch:type="MSPage">
        <g id="LinkedIn" sketch:type="MSArtboardGroup" transform="translate(-3.000000, 0.000000)" fill="#FFC054">
            <g id="Linked-In" sketch:type="MSLayerGroup" transform="translate(4.000000, 1.000000)">
                <path d="M-0.178993488,10.1719126 L-0.178993488,40.59802 L9.12781582,40.59802 L9.12781582,10.1719126 L-0.178993488,10.1719126 Z" id="Path" sketch:type="MSShapeGroup"></path>
                <path d="M35.5269384,12.0511722 C33.7968282,11.0369677 31.7684192,10.5000364 29.4417169,10.4403783 C27.1150146,10.3804198 25.0269475,10.7682044 23.1775183,11.6037295 L23.1775183,10.1719126 L13.7812205,10.1719126 L13.7812205,40.59802 L23.1775183,40.59802 L23.1775183,21.9844014 L27.025526,20.1051418 C27.5027992,19.8665066 28.1590468,19.7471876 28.9942741,19.7471876 C29.8291383,19.7471876 30.4853859,19.8963343 30.9630223,20.1946304 C31.2613156,20.3736075 31.5894421,20.7613921 31.9473963,21.3579815 C32.3053505,21.9545709 32.4843276,22.4915022 32.4843276,22.9687754 L32.4843276,40.59802 L41.8806255,40.59802 L41.8806255,22.9687754 C41.8806255,20.8210502 41.2840333,18.7180693 40.0908545,16.6598326 C38.8976756,14.6015959 37.3763702,13.0653767 35.5269384,12.0511722 L35.5269384,12.0511722 Z" id="Path" sketch:type="MSShapeGroup"></path>
                <path d="M4.47441117,-1.55108755 C3.16191196,-1.55108755 2.05822029,-1.10364479 1.16333478,-0.208759282 C0.268449267,0.686126228 -0.178993488,1.78981654 -0.178993488,3.10231711 C-0.178993488,4.41481494 0.268449267,5.53342183 1.16333478,6.45813777 C2.05822029,7.38285371 3.16191196,7.84521031 4.47441117,7.84521031 C5.786909,7.84521031 6.89060204,7.38285371 7.78548755,6.45813777 C8.68037306,5.53342183 9.12781582,4.41481494 9.12781582,3.10231711 C9.12781582,1.78981654 8.68037306,0.686126228 7.78548755,-0.208759282 C6.89060204,-1.10364479 5.786909,-1.55108755 4.47441117,-1.55108755 L4.47441117,-1.55108755 Z" id="Path" sketch:type="MSShapeGroup"></path>
            </g>
        </g>
    </g>
</svg>