<?xml version="1.0" encoding="UTF-8" standalone="no"?>
<svg width="48px" height="48px" viewBox="0 0 48 48" version="1.1" xmlns="http://www.w3.org/2000/svg" xmlns:xlink="http://www.w3.org/1999/xlink" xmlns:sketch="http://www.bohemiancoding.com/sketch/ns">
    <!-- Generator: Sketch 3.4.2 (15855) - http://www.bohemiancoding.com/sketch -->
    <title>linkin</title>
    <desc>Created with Sketch.</desc>
    <defs></defs>
    <g id="Page-1" stroke="none" stroke-width="1" fill="none" fill-rule="evenodd" sketch:type="MSPage">
        <g id="linkin" sketch:type="MSArtboardGroup" fill="#7B8383">
            <path d="M12.3482254,16.7768009 L3.50892918,16.7768009 L3.50892918,43.3214754 L12.3482254,43.3214754 L12.3482254,16.7768009 Z M12.9107261,8.5803626 C12.8839404,5.98214522 11.0089381,4 7.9821488,4 C4.98214522,4 3,5.98214522 3,8.5803626 C3,11.1250085 4.90178798,13.1607252 7.87500581,13.1607252 L7.9285773,13.1607252 C11.0089381,13.1607252 12.9375118,11.1250085 12.9107261,8.5803626 L12.9107261,8.5803626 Z M44.1429062,28.1071716 C44.1429062,19.9643047 39.8036153,16.1607288 33.9911084,16.1607288 C29.2232455,16.1607288 27.1339573,18.8125177 25.9821703,20.6339484 L26.0357417,20.6339484 L26.0357417,16.7768009 L17.2232312,16.7768009 C17.2232312,16.7768009 17.3303742,19.2678753 17.2232312,43.3214754 L26.0357417,43.3214754 L26.0357417,28.5089578 C26.0357417,27.7053854 26.116099,26.9285988 26.330385,26.3393123 C26.9732429,24.7589533 28.4196732,23.1250228 30.8571761,23.1250228 C34.0446799,23.1250228 35.3303957,25.5625257 35.3303957,29.12503 L35.3303957,43.3214754 L44.1429062,43.3214754 L44.1429062,28.1071716 Z" id="" sketch:type="MSShapeGroup"></path>
        </g>
    </g>
</svg>