<?xml version="1.0" encoding="UTF-8" standalone="no"?>
<svg width="48px" height="48px" viewBox="0 0 48 48" version="1.1" xmlns="http://www.w3.org/2000/svg" xmlns:xlink="http://www.w3.org/1999/xlink" xmlns:sketch="http://www.bohemiancoding.com/sketch/ns">
    <!-- Generator: Sketch 3.4.2 (15855) - http://www.bohemiancoding.com/sketch -->
    <title>music</title>
    <desc>Created with Sketch.</desc>
    <defs></defs>
    <g id="Page-1" stroke="none" stroke-width="1" fill="none" fill-rule="evenodd" sketch:type="MSPage">
        <g id="music" sketch:type="MSArtboardGroup" fill="#7B8383">
            <path d="M45.1429062,4.57143164 C45.1429062,3.15178709 43.9911191,2 42.5714746,2 C42.3036171,2 42.0625454,2.02678575 41.8214737,2.10714298 L19.5357328,8.96429402 C18.464303,9.31250872 17.7143021,10.3035813 17.7143021,11.4285827 L17.7143021,37.3303993 C16.1071573,36.6071841 14.339298,36.2857552 12.5714388,36.2857552 C9.65179245,36.2857552 4,37.6518282 4,41.4286184 C4,45.2054086 9.65179245,46.5714817 12.5714388,46.5714817 C15.4910851,46.5714817 21.1428776,45.2054086 21.1428776,41.4286184 L21.1428776,22.4375244 L41.7143307,16.0893025 L41.7143307,30.4732482 C40.1071859,29.7500331 38.3393266,29.4286041 36.5714674,29.4286041 C33.6518211,29.4286041 28.0000286,30.7946772 28.0000286,34.5714674 C28.0000286,38.3482576 33.6518211,39.7143307 36.5714674,39.7143307 C39.4911137,39.7143307 45.1429062,38.3482576 45.1429062,34.5714674 L45.1429062,4.57143164 Z" id="ï€" sketch:type="MSShapeGroup"></path>
        </g>
    </g>
</svg>