<?xml version="1.0" encoding="UTF-8" standalone="no"?>
<svg width="48px" height="48px" viewBox="0 0 48 48" version="1.1" xmlns="http://www.w3.org/2000/svg" xmlns:xlink="http://www.w3.org/1999/xlink" xmlns:sketch="http://www.bohemiancoding.com/sketch/ns">
    <!-- Generator: Sketch 3.4.2 (15855) - http://www.bohemiancoding.com/sketch -->
    <title>pins</title>
    <desc>Created with Sketch.</desc>
    <defs></defs>
    <g id="Page-1" stroke="none" stroke-width="1" fill="none" fill-rule="evenodd" sketch:type="MSPage">
        <g id="pins" sketch:type="MSArtboardGroup" fill="#7B8383">
            <path d="M45.1429062,23.5714531 C45.1429062,12.2142967 35.9286095,3 24.5714531,3 C13.2142967,3 4,12.2142967 4,23.5714531 C4,32.0089632 9.06250603,39.2411146 16.3214433,42.4286184 C16.2678718,40.9821881 16.2946575,39.2411146 16.669658,37.6875414 C16.669658,37.6875414 17.0714442,36.0268251 19.3214468,26.4910994 C18.6518032,25.1785979 18.6518032,23.2232384 18.6518032,23.2232384 C18.6518032,20.1696633 20.4196624,17.8928749 22.6160936,17.8928749 C24.4910959,17.8928749 25.4018112,19.3125194 25.4018112,21.0000215 C25.4018112,22.8750237 24.1964526,25.687527 23.5803805,28.2857444 C23.0714513,30.4821756 24.6785961,32.2500349 26.8214558,32.2500349 C30.7321747,32.2500349 33.3571779,27.2411003 33.3571779,21.3214504 C33.3571779,16.7946593 30.3036028,13.4196553 24.7857391,13.4196553 C18.5446602,13.4196553 14.660727,18.0803751 14.660727,23.2768099 C14.660727,25.0714549 15.1964419,26.330385 16.0268001,27.3214576 C16.4018005,27.7768153 16.455372,27.9375297 16.3214433,28.4732447 C16.2143003,28.8482451 16.0000143,29.7589605 15.8928713,30.1071752 C15.7589426,30.6428901 15.3303706,30.8303903 14.875013,30.6428901 C12.0089381,29.4643173 10.6696508,26.3035992 10.6696508,22.7678807 C10.6696508,16.928588 15.5982281,9.91072252 25.3482397,9.91072252 C33.2232491,9.91072252 38.3928981,15.6160865 38.3928981,21.6964509 C38.3928981,29.7857462 33.8928928,35.8125391 27.2768135,35.8125391 C25.0535965,35.8125391 22.9643083,34.6071805 22.2678789,33.2411075 C21.0625203,37.9821846 20.8214486,38.8928999 20.8214486,38.8928999 C20.3928767,40.473259 19.5089471,42.053618 18.7321604,43.2857623 C20.6071627,43.848263 22.5357364,44.1429062 24.5714531,44.1429062 C35.9286095,44.1429062 45.1429062,34.9286095 45.1429062,23.5714531 L45.1429062,23.5714531 Z" id="" sketch:type="MSShapeGroup"></path>
        </g>
    </g>
</svg>