<?xml version="1.0" encoding="UTF-8" standalone="no"?>
<svg width="41px" height="49px" viewBox="0 0 41 49" version="1.1" xmlns="http://www.w3.org/2000/svg" xmlns:xlink="http://www.w3.org/1999/xlink" xmlns:sketch="http://www.bohemiancoding.com/sketch/ns">
    <title>pinterest</title>
    <description>Created with Sketch (http://www.bohemiancoding.com/sketch)</description>
    <defs></defs>
    <g id="Page-1" stroke="none" stroke-width="1" fill="none" fill-rule="evenodd" sketch:type="MSPage">
        <g id="Pinterest" sketch:type="MSArtboardGroup" transform="translate(-4.000000, -1.000000)" fill="#FFC054">
            <path d="M22.7894469,35.7045082 C23.894708,36.5226892 25.1726683,37.0170064 26.6233248,37.1874613 C28.0739813,37.3579162 29.5246378,37.3408703 30.9752944,37.136325 C32.4259509,36.9317798 33.8075264,36.5567796 35.1200273,36.0113261 C36.4325281,35.4658726 37.5032487,34.8522368 38.3321952,34.1704188 C39.5756151,33.1476925 40.6463357,31.9204209 41.5443632,30.4886041 C42.4423908,29.0567873 43.1677191,27.4886075 43.720348,25.7840631 C44.2729769,24.0795203 44.6529129,22.35793 44.8601495,20.6192953 C45.0673862,18.8806606 45.0673862,17.1931622 44.8601495,15.5568001 C44.6529129,13.7840735 44.0830121,12.0624863 43.1504472,10.3920323 C42.2178823,8.72157834 41.0262716,7.23862521 39.5756151,5.94317294 C38.1249586,4.64772067 36.4670654,3.57385806 34.6019356,2.72158511 C32.7368058,1.86931215 30.7680577,1.3409046 28.6956913,1.13635934 C25.5180638,0.795449539 22.4613233,0.9829504 19.5254698,1.69885881 C16.5896162,2.41476722 13.9991582,3.57385806 11.7540956,5.17612822 C9.50903299,6.77839838 7.71298102,8.77271466 6.36594283,11.1590771 C5.01890464,13.5453677 4.34538555,16.238548 4.34538555,19.2386148 C4.27621602,22.1022484 4.77703738,24.420427 5.84785122,26.1931536 C6.91857177,27.9658787 8.73189241,29.3295148 11.2878131,30.2840588 C12.1858375,29.4658778 12.65212,28.6988331 12.6866605,27.9829247 C12.721201,27.2670162 12.5830422,26.5511078 12.2721872,25.8351994 C11.9613322,25.119291 11.5641276,24.3692907 11.0805765,23.5852016 C10.5970254,22.8011125 10.3207077,21.9317951 10.2516299,20.9772495 C9.97531544,18.4545257 10.4588666,16.0511189 11.7022864,13.7670291 C12.9457063,11.4829393 14.6554086,9.62498761 16.8313934,8.1931708 C19.0073781,6.76135398 21.4769492,5.90908103 24.2401034,5.63635505 C27.0032134,5.36345118 29.7663676,6.01117887 32.5295692,7.57953502 C33.7729891,8.32953534 34.7919005,9.40339796 35.5863097,10.8011229 C36.3807189,12.1988478 36.9160761,13.7670291 37.1923937,15.5056638 C37.4687113,17.2442985 37.5205205,19.0511139 37.3478212,20.9261132 C37.1751219,22.8010563 36.7606486,24.5226466 36.1044013,26.090881 C35.448154,27.6590608 34.5673983,29.0226969 33.4621341,30.1817862 C32.356873,31.3408755 31.0443722,32.0567839 29.5246378,32.3295114 C28.5577159,32.5340567 27.5906105,32.5170107 26.6233248,32.2783751 C25.6562194,32.0397395 24.9308912,31.7158756 24.4473401,31.3067851 C23.342079,30.2840588 22.8930652,29.1249695 23.1003019,27.8295157 C23.3075385,26.5340619 23.6874713,25.1363354 24.2401034,23.6363379 C24.7927355,22.1363404 25.2935553,20.6022509 25.7425691,19.0340695 C26.1915829,17.4658882 26.1052332,15.9658907 25.4835233,14.5340738 C24.9309766,13.3068023 24.1711078,12.5738495 23.2039202,12.3352123 C22.2368148,12.0965751 21.2524407,12.2158953 20.250798,12.6931665 C19.2491553,13.1704377 18.3511277,13.8863461 17.5567216,14.8408917 C16.7623155,15.7954373 16.2960331,16.8181636 16.1578743,17.9090706 C15.9506376,19.0681615 16.0197155,20.2102048 16.3651109,21.3352037 C16.7105064,22.4602026 16.8832025,23.5681572 16.8832025,24.6590642 C16.8832025,25.8863357 16.7277751,27.2158799 16.4169201,28.6476967 C16.1060651,30.0795136 15.7088605,31.5113304 15.2253094,32.9431472 C14.7417583,34.374964 14.2927445,35.7897349 13.8782712,37.1874613 C13.4637979,38.5851753 13.1529429,39.8976735 12.9457063,41.1249576 C12.8075475,42.0795032 12.6866605,43.3749554 12.5830422,45.0113175 C12.4794238,46.6476796 12.531233,47.9772238 12.7384696,48.9999501 L12.7384696,49.1022227 L16.054256,49.1022227 C17.228598,47.1249508 18.2302407,44.8067722 19.0591873,42.1476839 C19.8881339,39.4885955 20.6134621,36.9317798 21.2351721,34.4772366 C21.5805675,34.2045091 21.856882,34.2897373 22.0641186,34.7329182 C22.2713553,35.1760991 22.5131324,35.4999629 22.7894469,35.7045082 L22.7894469,35.7045082 Z" sketch:type="MSShapeGroup"></path>
        </g>
    </g>
</svg>