<?xml version="1.0" encoding="UTF-8" standalone="no"?>
<svg width="24px" height="24px" viewBox="0 0 24 24" version="1.1" xmlns="http://www.w3.org/2000/svg" xmlns:xlink="http://www.w3.org/1999/xlink" xmlns:sketch="http://www.bohemiancoding.com/sketch/ns">
    <!-- Generator: Sketch 3.1.1 (8761) - http://www.bohemiancoding.com/sketch -->
    <title>rss</title>
    <desc>Created with Sketch.</desc>
    <defs></defs>
    <g id="Page-1" stroke="none" stroke-width="1" fill="none" fill-rule="evenodd" sketch:type="MSPage">
        <path d="M6.42857909,20.7857105 C6.42857909,19.0111548 4.98884523,17.5714209 3.21428955,17.5714209 C1.43973386,17.5714209 0,19.0111548 0,20.7857105 C0,22.5602661 1.43973386,24 3.21428955,24 C4.98884523,24 6.42857909,22.5602661 6.42857909,20.7857105 L6.42857909,20.7857105 Z M15.0000179,22.8448647 C14.7154193,19.2790122 13.1584978,15.9140529 10.6138519,13.3861481 C8.08594714,10.8415022 4.72098777,9.28458067 1.15513531,8.99998212 L1.07142985,8.99998212 C0.803572387,8.99998212 0.535714924,9.10042867 0.351562919,9.28458067 C0.11718764,9.48547377 0,9.77007232 0,10.071412 L0,12.3314593 C0,12.8839153 0.418527285,13.3359248 0.9709833,13.3861481 C6.07701617,13.8716397 10.1283603,17.9229838 10.6138519,23.0290167 C10.6640752,23.5814727 11.1160847,24 11.6685407,24 L13.928588,24 C14.2299277,24 14.5145262,23.8828124 14.7154193,23.6484371 C14.9163124,23.4308029 15.016759,23.1462043 15.0000179,22.8448647 L15.0000179,22.8448647 Z M23.5714567,22.8783469 C23.270117,17.0189649 20.8091766,11.5111458 16.6406448,7.35935516 C12.4888542,3.19082341 6.98103511,0.729882974 1.12165312,0.428543329 L1.07142985,0.428543329 C0.803572387,0.428543329 0.535714924,0.528989878 0.334821828,0.729882974 C0.11718764,0.930776071 0,1.19863353 0,1.49997318 L0,3.89394925 C0,4.44640526 0.435268376,4.91515582 1.00446548,4.948638 C10.7310396,5.51783511 18.4821649,13.2689604 19.0346209,22.9955345 C19.0681031,23.5647316 19.5368536,24 20.1060508,24 L22.5000268,24 C22.8013665,24 23.0692239,23.8828124 23.270117,23.6651782 C23.4877512,23.447544 23.5881978,23.1629454 23.5714567,22.8783469 L23.5714567,22.8783469 Z" id="rss" fill="#FFC054" sketch:type="MSShapeGroup"></path>
    </g>
</svg>
