<?xml version="1.0" encoding="UTF-8" standalone="no"?>
<svg width="48px" height="48px" viewBox="0 0 48 48" version="1.1" xmlns="http://www.w3.org/2000/svg" xmlns:xlink="http://www.w3.org/1999/xlink" xmlns:sketch="http://www.bohemiancoding.com/sketch/ns">
    <!-- Generator: Sketch 3.4.2 (15855) - http://www.bohemiancoding.com/sketch -->
    <title>rss</title>
    <desc>Created with Sketch.</desc>
    <defs></defs>
    <g id="Page-1" stroke="none" stroke-width="1" fill="none" fill-rule="evenodd" sketch:type="MSPage">
        <g id="rss" sketch:type="MSArtboardGroup" fill="#7B8383">
            <path d="M15.2857265,37.5714674 C15.2857265,34.7321783 12.9821524,32.4286041 10.1428633,32.4286041 C7.30357417,32.4286041 5,34.7321783 5,37.5714674 C5,40.4107565 7.30357417,42.7143307 10.1428633,42.7143307 C12.9821524,42.7143307 15.2857265,40.4107565 15.2857265,37.5714674 L15.2857265,37.5714674 Z M29.0000286,40.8661142 C28.5446709,35.1607502 26.0535965,29.7768153 21.9821631,25.7321676 C17.9375154,21.6607341 12.5535804,19.1696597 6.84821649,18.7143021 L6.71428776,18.7143021 C6.28571582,18.7143021 5.85714388,18.8750165 5.56250067,19.1696597 C5.18750022,19.4910887 5,19.9464464 5,20.4285898 L5,24.0446656 C5,24.9285952 5.66964366,25.6518103 6.55357328,25.7321676 C14.7232259,26.5089542 21.2053765,32.9911048 21.9821631,41.1607574 C22.0625203,42.044687 22.7857355,42.7143307 23.6696651,42.7143307 L27.2857409,42.7143307 C27.7678843,42.7143307 28.223242,42.5268304 28.5446709,42.15183 C28.8660999,41.8036153 29.0268144,41.3482576 29.0000286,40.8661142 L29.0000286,40.8661142 Z M42.7143307,40.9196857 C42.2321872,31.5446745 38.2946825,22.732164 31.6250317,16.0892989 C24.9821667,9.41964813 16.1696562,5.48214343 6.794645,5 L6.71428776,5 C6.28571582,5 5.85714388,5.16071448 5.53571492,5.48214343 C5.18750022,5.80357239 5,6.23214433 5,6.71428776 L5,10.5446495 C5,11.4285791 5.6964294,12.17858 6.60714477,12.2321515 C22.1696633,13.1428668 34.5714638,25.5446673 35.4553934,41.1071859 C35.5089649,42.0179013 36.2589658,42.7143307 37.1696812,42.7143307 L41.0000429,42.7143307 C41.4821863,42.7143307 41.9107583,42.5268304 42.2321872,42.1786157 C42.5804019,41.830401 42.7411164,41.3750434 42.7143307,40.9196857 L42.7143307,40.9196857 Z" id="" sketch:type="MSShapeGroup"></path>
        </g>
    </g>
</svg>