<?xml version="1.0" encoding="UTF-8" standalone="no"?>
<svg width="48px" height="48px" viewBox="0 0 48 48" version="1.1" xmlns="http://www.w3.org/2000/svg" xmlns:xlink="http://www.w3.org/1999/xlink" xmlns:sketch="http://www.bohemiancoding.com/sketch/ns">
    <!-- Generator: Sketch 3.4.2 (15855) - http://www.bohemiancoding.com/sketch -->
    <title>slides</title>
    <desc>Created with Sketch.</desc>
    <defs></defs>
    <g id="Page-1" stroke="none" stroke-width="1" fill="none" fill-rule="evenodd" sketch:type="MSPage">
        <g id="slides" sketch:type="MSArtboardGroup" fill="#7B8383">
            <path d="M23.5714531,3.28566933 C12.2142967,3.28566933 3,12.499966 3,23.8571224 C3,35.2142788 12.2142967,44.4285755 23.5714531,44.4285755 C34.9286095,44.4285755 44.1429062,35.2142788 44.1429062,23.8571224 C44.1429062,12.499966 34.9286095,3.28566933 23.5714531,3.28566933 L23.5714531,3.28566933 Z M33.8571796,25.3303385 L19.2857337,33.9017773 C19.0178762,34.0624917 18.723233,34.142849 18.4285898,34.142849 C18.1339466,34.142849 17.8393034,34.0624917 17.5714459,33.928563 C17.035731,33.607134 16.7143021,33.0446334 16.7143021,32.4285612 L16.7143021,15.2856836 C16.7143021,14.6696115 17.035731,14.1071108 17.5714459,13.7856818 C18.1071609,13.4910386 18.7768045,13.4910386 19.2857337,13.8124676 L33.8571796,22.3839064 C34.3928946,22.6785496 34.7143235,23.2410503 34.7143235,23.8571224 C34.7143235,24.4731946 34.3928946,25.0356953 33.8571796,25.3303385 L33.8571796,25.3303385 Z" id="-copy-2" sketch:type="MSShapeGroup"></path>
        </g>
    </g>
</svg>