<?xml version="1.0" encoding="UTF-8" standalone="no"?>
<svg width="36px" height="38px" viewBox="0 0 36 38" version="1.1" xmlns="http://www.w3.org/2000/svg" xmlns:xlink="http://www.w3.org/1999/xlink" xmlns:sketch="http://www.bohemiancoding.com/sketch/ns">
    <!-- Generator: Sketch 3.2.2 (9983) - http://www.bohemiancoding.com/sketch -->
    <title>slides</title>
    <desc>Created with Sketch.</desc>
    <defs></defs>
    <g id="Page-1" stroke="none" stroke-width="1" fill="none" fill-rule="evenodd" sketch:type="MSPage">
        <g id="slides" sketch:type="MSArtboardGroup" fill="#9f9089">
            <path d="M17.5379673,16.0089095 C17.5379673,13.7589068 15.5893043,11.950869 13.1986764,11.950869 C10.8080486,11.950869 8.85938556,13.7589068 8.85938556,16.0089095 C8.85938556,18.2388229 10.8080486,20.0669501 13.1986764,20.0669501 C15.5893043,20.0669501 17.5379673,18.2388229 17.5379673,16.0089095 L17.5379673,16.0089095 Z M27.6228008,16.0089095 C27.6228008,13.7589068 25.6942271,11.950869 23.2835099,11.950869 C20.892882,11.950869 18.944219,13.7589068 18.944219,16.0089095 C18.944219,18.2388229 20.892882,20.0669501 23.2835099,20.0669501 C25.6942271,20.0669501 27.6228008,18.2388229 27.6228008,16.0089095 L27.6228008,16.0089095 Z M32.1428955,19.6249852 C27.3013718,22.2566848 23.1227954,21.81472 20.8527034,21.7142735 C19.1852907,21.6540055 18.5625221,22.3571314 18.4821649,23.4620434 C18.0803787,23.1607037 17.6785925,22.8392748 17.256717,22.4374886 C17.1763598,22.3772207 17.1160918,22.3169527 17.0558239,22.2566848 C16.6942163,21.8749879 16.091537,21.6941841 15.1473395,21.7142735 C12.9174261,21.7946307 8.83929625,22.2365955 4.07812986,19.7455211 L4.07812986,6.2254157 C4.07812986,3.77451992 4.70089846,3.01112616 6.93081183,3.01112616 L29.2701242,3.01112616 C31.399591,3.01112616 32.1428955,3.91514509 32.1428955,6.2254157 L32.1428955,19.6249852 Z M35.4174529,19.5245387 C36.0603108,18.5602518 35.357185,17.535697 34.2924516,18.2790015 L33.8705761,18.5803411 L33.8705761,4.63836024 C33.8705761,2.70978651 32.4241458,1.14282036 30.6361972,1.14282036 L5.38393499,1.14282036 C3.59598643,1.14282036 2.14955613,2.70978651 2.14955613,4.63836024 L2.14955613,18.5803411 C2.00893097,18.4798946 1.84821649,18.379448 1.70759132,18.2790015 C0.642857909,17.535697 -0.060267929,18.5602518 0.58258998,19.5245387 C1.8683058,21.1115942 4.31920158,23.0602572 8.05581317,24.5870447 C4.09821917,38.0669715 17.7187711,40.2165277 17.4977887,33.3058051 C17.4977887,33.426341 17.517878,29.3883897 17.517878,26.5156185 C17.8794856,26.5959757 18.1808252,26.6763329 18.4821649,26.7366009 C18.4821649,29.5892828 18.5022542,33.426341 18.5022542,33.3058051 C18.2812718,40.2165277 31.9018237,38.0669715 27.9442297,24.5870447 C31.6808413,23.0602572 34.1317371,21.1115942 35.4174529,19.5245387 L35.4174529,19.5245387 Z" id="slideshare" sketch:type="MSShapeGroup"></path>
        </g>
    </g>
</svg>
