<?xml version="1.0" encoding="UTF-8" standalone="no"?>
<svg width="50px" height="21px" viewBox="0 0 50 21" version="1.1" xmlns="http://www.w3.org/2000/svg" xmlns:xlink="http://www.w3.org/1999/xlink" xmlns:sketch="http://www.bohemiancoding.com/sketch/ns">
    <title>soundcloud</title>
    <description>Created with Sketch (http://www.bohemiancoding.com/sketch)</description>
    <defs></defs>
    <g id="Page-1" stroke="none" stroke-width="1" fill="none" fill-rule="evenodd" sketch:type="MSPage">
        <g id="SoundCloud" sketch:type="MSArtboardGroup" transform="translate(0.000000, -14.000000)" fill="#9f9089">
            <g id="Group" sketch:type="MSLayerGroup" transform="translate(0.000000, 15.000000)">
                <path d="M0.656235248,14.3750225 C0.656235248,16.0625209 1.31248462,17.4062692 2.62498337,18.4062687 L2.62498337,10.2500265 C1.31248462,11.3750254 0.656235248,12.7500231 0.656235248,14.3750225 L0.656235248,14.3750225 Z" id="Path" sketch:type="MSShapeGroup"></path>
                <path d="M4.6874814,9.21877745 L4.6874814,19.5312676 C4.93748164,19.593768 5.17185642,19.640643 5.39060573,19.6718925 C5.60919912,19.703142 5.87482339,19.7187674 6.18747997,19.7187674 L6.65622953,19.7187674 L6.65622953,9.03127763 L6.18747997,9.03127763 C5.87498075,9.03127763 5.60935505,9.04690166 5.39060573,9.07815258 C5.17185642,9.10940351 4.93748164,9.15627846 4.6874814,9.21877745 L4.6874814,9.21877745 Z" id="Path" sketch:type="MSShapeGroup"></path>
                <path d="M9.18747711,9.87502682 C8.93783879,9.75002599 8.78158846,9.687527 8.71872756,9.687527 L8.71872756,19.7187674 L10.7812256,19.7187674 L10.7812256,6.21878031 C9.90622547,7.28128025 9.37497693,8.50002909 9.18747711,9.87502682 L9.18747711,9.87502682 Z" id="Path" sketch:type="MSShapeGroup"></path>
                <path d="M12.8437236,4.3437821 L12.8437236,19.7187674 L14.8124717,19.7187674 L14.8124717,3.31253308 C13.9999735,3.62503374 13.3437241,3.96878245 12.8437236,4.3437821 L12.8437236,4.3437821 Z" id="Path" sketch:type="MSShapeGroup"></path>
                <path d="M16.8749698,2.93753344 L16.8749698,19.7187674 L18.9374678,19.7187674 L18.9374678,3.03128335 C18.687469,2.96878436 18.2499675,2.93753344 17.6249691,2.93753344 L16.8749698,2.93753344 Z" id="Path" sketch:type="MSShapeGroup"></path>
                <path d="M22.1249648,4.15628228 C21.5624653,3.71878365 20.8437169,3.40628299 19.9687168,3.21878317 L19.9687168,19.7187674 L23.0624639,19.7187674 L23.0624639,2.93753344 C22.6874642,3.31253308 22.3749636,3.71878365 22.1249648,4.15628228 L22.1249648,4.15628228 Z" id="Path" sketch:type="MSShapeGroup"></path>
                <path d="M23.999963,1.90628442 L23.999963,19.7187674 L43.4061945,19.7187674 C45.4686925,19.593768 46.9686911,18.9687681 47.9061902,17.8437692 C48.8436893,16.7187703 49.3124388,15.4062715 49.3124388,13.906273 C49.3124388,12.2812736 48.7655663,10.8906518 47.6718154,9.73440196 C46.5780645,8.57815211 45.2186908,8.00002861 43.5936943,8.00002861 C43.0936967,8.00002861 42.6718221,8.04690357 42.3280705,8.14065348 C41.9843189,8.23440339 41.6249462,8.34377733 41.2499465,8.46877816 C40.9374487,5.90627965 39.8124498,3.73440768 37.8749498,1.95315938 C35.937547,0.171911076 33.6250473,-0.718713075 30.9374564,-0.718713075 C29.6249576,-0.718713075 28.3749579,-0.484338298 27.1874599,-0.0155887455 C25.999962,0.453160807 24.9374621,1.09378615 23.999963,1.90628442 L23.999963,1.90628442 Z" id="Path" sketch:type="MSShapeGroup"></path>
            </g>
        </g>
    </g>
</svg>
