<?xml version="1.0" encoding="UTF-8" standalone="no"?>
<svg width="49px" height="40px" viewBox="0 0 49 40" version="1.1" xmlns="http://www.w3.org/2000/svg" xmlns:xlink="http://www.w3.org/1999/xlink" xmlns:sketch="http://www.bohemiancoding.com/sketch/ns">
    <title>twitter</title>
    <description>Created with Sketch (http://www.bohemiancoding.com/sketch)</description>
    <defs></defs>
    <g id="Page-1" stroke="none" stroke-width="1" fill="none" fill-rule="evenodd" sketch:type="MSPage">
        <g id="Twitter" sketch:type="MSArtboardGroup" transform="translate(0.000000, -5.000000)" fill="#9f9089">
            <path d="M42.7499592,11.3157835 C44.9021311,9.99999423 46.369521,8.12499602 47.1521289,5.69078881 C46.173869,6.28289351 45.1630024,6.79276044 44.1195231,7.22039262 C43.0760439,7.64802479 41.9673513,7.96052349 40.7934394,8.15789173 C39.8803987,7.17105056 38.8043128,6.39802398 37.5651816,5.83881499 C36.3262533,5.279606 34.9892961,5 33.5543158,5 C32.1847519,5 30.8967107,5.26315664 29.6901891,5.78947293 C28.4837123,6.3156025 27.4239297,7.03928703 26.5108443,7.96052349 C25.5979649,8.88153108 24.8805733,9.95061001 24.3586724,11.1677573 C23.8369328,12.3848624 23.5760645,13.6842022 23.5760645,15.0657799 C23.5760645,15.7894644 23.6738905,16.5460416 23.8695425,17.3355146 C19.7608507,17.1381463 15.945637,16.1019631 12.4239012,14.2269649 C8.90216542,12.3519667 5.90216779,9.90131011 3.42390978,6.87499821 C2.51086767,8.38815567 2.05434587,10.0657856 2.05434587,11.9078881 C2.05434587,13.6184138 2.46195467,15.1973597 3.27717079,16.6447257 C4.09238243,18.0920918 5.15216353,19.2763012 6.45651558,20.1973539 C5.60868981,20.1973539 4.82608186,20.0822235 4.10869173,19.8519595 C3.39130161,19.6216956 2.67391,19.3420926 1.95651987,19.0131445 C1.95651987,21.5460358 2.70651966,23.6677444 4.20651773,25.4769542 C5.70649341,27.2861098 7.59779546,28.4538728 9.88042536,28.9802403 C9.09781741,29.1776085 8.24999313,29.2762926 7.33694952,29.2762926 L6.40760258,29.2762926 C6.1141246,29.2762926 5.80434179,29.2105042 5.47825565,29.0789244 C6.13042943,31.1183966 7.28803653,32.7795788 8.95107842,34.0624723 C10.6141203,35.3453658 12.5543368,36.0197068 14.771725,36.0854967 C13.0760735,37.4012844 11.1684666,38.4539155 9.04890441,39.2433884 C6.92934072,40.0328613 4.6956477,40.4275978 2.34782385,40.4275978 C1.95651987,40.4275978 1.5652159,40.4111499 1.17391192,40.3782557 C0.782607949,40.3453615 0.391303975,40.2960195 0,40.2302296 C2.21738969,41.6775971 4.5978217,42.7960166 7.14129754,43.5854895 C9.68477337,44.3749624 12.3912915,44.7696989 15.260855,44.7696989 C19.8260671,44.7696989 23.8695425,43.8979882 27.3912782,42.1545698 C30.9129214,40.4111499 33.8640046,38.174311 36.2445307,35.4440499 C38.6249612,32.7137889 40.4347421,29.6545828 41.6738733,26.2664271 C42.9130045,22.8782714 43.5325672,19.5394608 43.5325672,16.2499893 L43.5325672,14.8684116 C45.4238677,13.5526224 47.0869096,11.8420997 48.5216929,9.73683759 C46.760825,10.4603505 44.8369118,10.9866667 42.7499592,11.3157835 Z" sketch:type="MSShapeGroup"></path>
        </g>
    </g>
</svg>
