<?xml version="1.0" encoding="UTF-8" standalone="no"?>
<svg width="48px" height="48px" viewBox="0 0 48 48" version="1.1" xmlns="http://www.w3.org/2000/svg" xmlns:xlink="http://www.w3.org/1999/xlink" xmlns:sketch="http://www.bohemiancoding.com/sketch/ns">
    <!-- Generator: Sketch 3.4.2 (15855) - http://www.bohemiancoding.com/sketch -->
    <title>tweeter</title>
    <desc>Created with Sketch.</desc>
    <defs></defs>
    <g id="Page-1" stroke="none" stroke-width="1" fill="none" fill-rule="evenodd" sketch:type="MSPage">
        <g id="tweeter" sketch:type="MSArtboardGroup" fill="#7B8383">
            <path d="M45.214336,11.0714334 C43.6607628,11.7410771 41.9732607,12.2232205 40.2321872,12.4107207 C42.0268322,11.3392909 43.3929053,9.65178888 44.0357632,7.64285791 C42.3750469,8.63393052 40.5000447,9.35714567 38.5446852,9.73214611 C36.9643262,8.0446441 34.7143235,7 32.2232491,7 C27.4286005,7 23.5714531,10.8839332 23.5714531,15.651796 C23.5714531,16.3214397 23.6518103,16.9910833 23.7857391,17.6339412 C16.6071591,17.2589408 10.2053657,13.8303653 5.94643208,8.58035903 C5.19643119,9.86607485 4.76785925,11.3392909 4.76785925,12.9464357 C4.76785925,15.9464392 6.29464678,18.5982281 8.62500671,20.1518014 C7.20536216,20.0982299 5.86607485,19.6964437 4.71428776,19.0535858 L4.71428776,19.1607288 C4.71428776,23.3660909 7.68750559,26.8482379 11.651796,27.6518103 C10.9285809,27.8393106 10.1517942,27.9464535 9.3750076,27.9464535 C8.81250693,27.9464535 8.276792,27.892882 7.74107708,27.8125248 C8.83929268,31.2411003 12.0267965,33.7321747 15.8303724,33.812532 C12.8571546,36.1428919 9.13393588,37.5089649 5.0892882,37.5089649 C4.36607306,37.5089649 3.6964294,37.4821792 3,37.401822 C6.83036171,39.8661106 11.3839386,41.2857552 16.2857301,41.2857552 C32.1964634,41.2857552 40.9018309,28.107168 40.9018309,16.6696544 C40.9018309,16.2946539 40.9018309,15.9196535 40.8750452,15.544653 C42.5625472,14.3125087 44.0357632,12.7857212 45.214336,11.0714334 L45.214336,11.0714334 Z" id="" sketch:type="MSShapeGroup"></path>
        </g>
    </g>
</svg>