<?xml version="1.0" encoding="UTF-8" standalone="no"?>
<svg width="325px" height="41px" viewBox="0 0 325 41" version="1.1" xmlns="http://www.w3.org/2000/svg" xmlns:xlink="http://www.w3.org/1999/xlink" xmlns:sketch="http://www.bohemiancoding.com/sketch/ns">
    <title>name</title>
    <description>Created with Sketch (http://www.bohemiancoding.com/sketch)</description>
    <defs></defs>
    <g id="Page-1" stroke="none" stroke-width="1" fill="none" fill-rule="evenodd" sketch:type="MSPage">
        <g id="name" sketch:type="MSArtboardGroup" fill="#FFC054">
            <path d="M163.381577,22.944 L149.664,22.944 C149.664,31.44 150.432,39.072 159.216,39.072 C166.224,39.072 167.472,34.464 167.472,31.968 L169.536,32.4 C169.536,35.424 167.568,41.136 159.168,41.136 C148.416,41.136 147.408,32.352 147.408,22.272 C147.408,14.16 148.32,5.616 158.688,5.616 C163.508603,5.616 166.262665,7.91648867 167.795581,11.245992 L165.551314,11.7306191 C164.291994,9.29892056 162.176279,7.68 158.688,7.68 C150.672,7.68 149.76,14.304 149.664,20.88 L163.340442,20.88 L163.381577,22.944 L163.381577,22.944 Z M82.608,10.464 L82.608,40.752 L84.864,40.752 L84.864,10.464 L100.416,10.464 L100.416,30.336 C100.416,36.768 103.104,41.136 110.352,41.136 C111.6,41.136 112.8,40.944 113.424,40.8 L113.424,38.688 C112.8,38.832 111.696,39.072 110.544,39.072 C104.832,39.072 102.672,35.472 102.672,29.856 L102.672,10.464 L112.512,10.464 L112.512,8.4 L102.672,8.4 L102.672,3.312 L100.416,3.312 L100.416,8.4 L72.4388079,8.39999995 L72.4388079,10.464 L82.608,10.464 L82.608,10.464 Z M-3.55271368e-15,6 L-3.55271368e-15,40.752 L2.256,40.752 L2.256,16.896 C2.256,13.536 4.464,7.68 11.232,7.68 C18.096,7.68 20.016,12.48 20.016,17.952 L20.016,40.752 L22.272,40.752 L22.272,17.664 C22.272,13.056 23.28,7.68 30.576,7.68 C37.392,7.68 39.312,12.48 39.312,17.952 L39.312,40.752 L41.568,40.752 L41.568,17.616 C41.568,11.136 39.072,5.616 30.96,5.616 C25.008,5.616 22.512,9.312 21.456,12.048 C20.16,8.256 17.232,5.616 11.616,5.616 C5.04,5.616 2.784,10.032 2.256,12.24 L2.112,12.24 L2.112,6 L-3.55271368e-15,6 Z M69.072,16.608 C69.072,10.512 66.576,5.616 58.464,5.616 C48.384,5.616 47.856,13.152 47.856,16.176 L49.968,16.704 C49.968,14.256 50.208,7.68 58.416,7.68 C64.752,7.68 66.768,11.712 66.768,16.848 L66.768,24.672 L66.576,24.672 C66.576,24.672 64.896,20.016 57.984,20.016 C51.696,20.016 47.376,24.624 47.376,30.48 C47.376,36.48 51.696,41.136 57.936,41.136 C65.376,41.136 66.816,35.712 66.816,35.712 L66.96,35.712 L66.96,37.584 C66.96,39.84 68.064,41.136 69.936,41.136 C71.28,41.136 72.048,40.704 72.048,40.704 L72.048,38.736 C72.048,38.736 71.472,39.072 70.752,39.072 C69.6,39.072 69.072,38.544 69.072,36.768 L69.072,16.608 Z M66.912,30.528 C66.912,34.224 64.944,39.072 58.08,39.072 C52.944,39.072 49.632,35.136 49.632,30.528 C49.632,25.968 52.944,22.08 58.08,22.08 C64.992,22.08 66.912,26.832 66.912,30.528 Z M141.264,40.752 L141.264,17.664 C141.264,11.184 138.768,5.616 130.608,5.616 C124.032,5.616 121.872,10.032 121.344,12.24 L121.2,12.24 L121.2,0 L118.992,0 L118.992,40.752 L121.248,40.752 L121.248,16.896 C121.536,13.536 123.456,7.68 130.224,7.68 C137.088,7.68 139.008,12.48 139.008,17.952 L139.008,40.752 L141.264,40.752 Z M184.944,40.752 L192.192,9.696 L199.488,40.752 L201.888,40.752 L211.536,6 L209.184,6 L200.688,37.296 L193.296,6 L190.992,6 L183.792,37.296 L175.2,6 L172.8,6 L182.544,40.752 L184.944,40.752 Z M235.584,32.544 L224.64,32.544 L224.64,6 L215.088,6 L215.088,40.752 L235.584,40.752 L235.584,32.544 Z M254.256,6 L254.256,13.872 C254.256,16.752 253.2,19.296 250.224,19.296 C247.056,19.296 246.384,16.368 246.384,13.632 L246.384,6 L236.976,6 L236.976,15.744 C236.976,22.224 240.336,27.792 247.824,27.792 C253.296,27.792 254.544,24.144 254.544,24.144 L254.832,24.144 L254.832,29.184 C254.832,32.496 253.536,34.176 250.416,34.176 C247.2,34.176 246.144,31.968 246.144,29.424 L237.6,30.816 C237.6,33.6 237.84,41.232 250.416,41.232 C260.784,41.232 263.808,36 263.808,29.424 L263.808,6 L254.256,6 Z M280.656,41.136 C290.208,41.136 294.528,35.904 294.528,23.568 C294.528,11.232 290.208,5.616 280.656,5.616 C271.104,5.616 266.784,11.232 266.784,23.568 C266.784,35.904 271.104,41.136 280.656,41.136 Z M280.656,32.64 C277.68,32.64 276.432,30 276.432,23.568 C276.432,16.944 277.68,14.112 280.656,14.112 C283.632,14.112 284.88,16.944 284.88,23.568 C284.88,30 283.632,32.64 280.656,32.64 Z M324.72,40.752 L324.72,17.616 C324.72,11.136 321.504,5.568 314.448,5.568 C308.16,5.568 306.576,10.416 306.528,10.656 L306.24,10.656 L306.24,6 L297.744,6 L297.744,40.752 L307.296,40.752 L307.296,19.056 C307.392,16.368 308.496,14.064 311.328,14.064 C314.496,14.064 315.168,16.992 315.168,19.728 L315.168,40.752 L324.72,40.752 Z" id="maTthewLyon" sketch:type="MSShapeGroup"></path>
        </g>
    </g>
</svg>